<mxfile host="app.diagrams.net" modified="2023-10-03T19:55:58.328Z" agent="Mozilla/5.0 (X11; Linux x86_64) AppleWebKit/537.36 (KHTML, like Gecko) Chrome/117.0.0.0 Safari/537.36" version="22.0.2" etag="dlMcZ3GHa6TU_EwI8ch9" type="github">
  <diagram name="Page-1" id="7eOC7KQ3EKZaGHgASWD0">
    <mxGraphModel>
      <root>
        <mxCell id="0" />
        <mxCell id="1" parent="0" />
      </root>
    </mxGraphModel>
  </diagram>
</mxfile>
